<svg width="164" height="45" viewBox="0 0 164 45" fill="none" xmlns="http://www.w3.org/2000/svg">
<path fill-rule="evenodd" clip-rule="evenodd" d="M34.8777 7.44263C35.5526 7.99279 36.5457 7.89167 37.0958 7.21677C37.646 6.54187 37.5449 5.54876 36.87 4.9986C33.5252 2.27204 29.4591 0.578138 25.1678 0.123636C20.8766 -0.330867 16.5458 0.473686 12.7041 2.4391C8.86244 4.40451 5.67598 7.44578 3.53367 11.1917C1.39135 14.9376 0.385847 19.2262 0.639868 23.534C0.89389 27.8417 2.39646 31.9824 4.96417 35.4506C7.53189 38.9188 11.0537 41.5644 15.0998 43.0647C19.1458 44.565 23.5411 44.855 27.7492 43.8993C31.9573 42.9436 35.7962 40.7836 38.7973 37.6828C39.4029 37.0571 39.3866 36.059 38.7609 35.4535C38.1352 34.8479 37.1371 34.8642 36.5316 35.4899C33.9562 38.1507 30.662 40.0043 27.0509 40.8244C23.4398 41.6445 19.6681 41.3957 16.196 40.1082C12.724 38.8208 9.70183 36.5505 7.4984 33.5743C5.29497 30.5982 4.00558 27.045 3.7876 23.3483C3.56961 19.6517 4.43247 15.9716 6.27084 12.7571C8.10922 9.54262 10.8436 6.93283 14.1403 5.24626C17.4369 3.55968 21.1533 2.86927 24.8357 3.25929C28.5182 3.64931 32.0074 5.1029 34.8777 7.44263ZM29.9883 13.3392C30.6632 13.8894 31.6563 13.7883 32.2065 13.1134C32.7566 12.4385 32.6555 11.4453 31.9806 10.8952C29.7216 9.05372 26.9755 7.9097 24.0772 7.60273C21.179 7.29577 18.2541 7.83915 15.6595 9.16655C13.0649 10.494 10.9128 12.548 9.46593 15.0779C8.01905 17.6078 7.33996 20.5042 7.51152 23.4136C7.68308 26.323 8.69788 29.1195 10.4321 31.4619C12.1663 33.8042 14.5448 35.591 17.2774 36.6043C20.0101 37.6176 22.9786 37.8134 25.8206 37.168C28.6627 36.5225 31.2554 35.0637 33.2823 32.9695C33.8879 32.3438 33.8716 31.3457 33.2459 30.7401C32.6202 30.1346 31.6221 30.1509 31.0166 30.7765C29.4154 32.4308 27.3674 33.5832 25.1223 34.0931C22.8772 34.603 20.5323 34.4482 18.3737 33.6478C16.2151 32.8474 14.3362 31.4359 12.9663 29.5856C11.5964 27.7353 10.7948 25.5262 10.6592 23.228C10.5237 20.9298 11.0602 18.6418 12.2031 16.6433C13.3461 14.6448 15.0461 13.0223 17.0956 11.9737C19.1452 10.9251 21.4557 10.4959 23.7451 10.7384C26.0345 10.9809 28.2039 11.8846 29.9883 13.3392Z" fill="url(#paint0_linear_1_668)"/>
<path d="M22.4212 30.2845C20.28 30.2845 18.5071 29.5993 17.1025 28.229C15.7322 26.8586 15.047 25.1114 15.047 22.9874C15.047 20.8634 15.7407 19.1162 17.1282 17.7458C18.5328 16.3755 20.3314 15.6903 22.5239 15.6903C23.9628 15.6903 25.2561 16.0329 26.4037 16.7181C27.5685 17.3861 28.4336 18.3197 28.9988 19.5187L26.2753 20.9833C25.3845 19.5101 24.1512 18.7736 22.5753 18.7736C21.3763 18.7736 20.3742 19.1761 19.5691 19.9812C18.7812 20.7691 18.3872 21.7712 18.3872 22.9874C18.3872 24.1864 18.7726 25.1885 19.5434 25.9936C20.3143 26.7987 21.2906 27.2012 22.4726 27.2012C23.2434 27.2012 23.9714 27.0042 24.6565 26.6103C25.3589 26.1991 25.8813 25.6681 26.2239 25.0172L28.9474 26.6103C28.3308 27.7408 27.4401 28.6401 26.2753 29.3081C25.1276 29.959 23.8429 30.2845 22.4212 30.2845ZM30.4277 22.9874C30.4277 20.9319 31.1214 19.2018 32.5089 17.7972C33.9306 16.3755 35.7206 15.6646 37.8789 15.6646C40.0544 15.6646 41.8358 16.3755 43.2233 17.7972C44.6279 19.2018 45.3302 20.9319 45.3302 22.9874C45.3302 25.0772 44.6279 26.8244 43.2233 28.229C41.8358 29.6336 40.0544 30.3359 37.8789 30.3359C35.7035 30.3359 33.9135 29.6336 32.5089 28.229C31.1214 26.8244 30.4277 25.0772 30.4277 22.9874ZM41.9643 22.9874C41.9643 21.8055 41.5703 20.812 40.7823 20.0069C39.9773 19.1847 39.0095 18.7736 37.8789 18.7736C36.7484 18.7736 35.7806 19.1847 34.9755 20.0069C34.1876 20.812 33.7936 21.8055 33.7936 22.9874C33.7936 24.1864 34.1876 25.1885 34.9755 25.9936C35.7806 26.8158 36.7484 27.2269 37.8789 27.2269C39.0095 27.2269 39.9773 26.8158 40.7823 25.9936C41.5703 25.1885 41.9643 24.1864 41.9643 22.9874ZM49.7327 14.3542C49.116 14.3542 48.6022 14.1572 48.1911 13.7632C47.7799 13.3693 47.5744 12.864 47.5744 12.2473C47.5744 11.6478 47.7799 11.151 48.1911 10.7571C48.6193 10.3459 49.1332 10.1404 49.7327 10.1404C50.3322 10.1404 50.829 10.3459 51.2229 10.7571C51.634 11.151 51.8396 11.6478 51.8396 12.2473C51.8396 12.864 51.634 13.3693 51.2229 13.7632C50.829 14.1572 50.3322 14.3542 49.7327 14.3542ZM51.3771 16.0243V29.9762H48.0112V16.0243H51.3771ZM58.0497 29.9762H54.7095V16.0243H57.9983V17.9771C58.3752 17.2576 58.949 16.6924 59.7198 16.2813C60.4907 15.8702 61.3814 15.6646 62.392 15.6646C63.9165 15.6646 65.2098 16.1699 66.2718 17.1806C67.3338 18.1912 67.8648 19.6215 67.8648 21.4714V29.9762H64.4989V22.3964C64.4989 21.2488 64.2248 20.3495 63.6767 19.6986C63.1286 19.0476 62.3834 18.7222 61.4413 18.7222C60.4478 18.7222 59.6342 19.0733 59.0004 19.7756C58.3666 20.4608 58.0497 21.3515 58.0497 22.4478V29.9762ZM79.7318 26.5332L80.7853 29.154C79.689 29.9248 78.3444 30.3102 76.7513 30.3102C73.5653 30.3102 71.9723 28.4945 71.9723 24.8631V18.8507H69.6598V16.0243H72.0236V11.0911H75.3382V16.0243H80.0145V18.8507H75.3382V24.7346C75.3382 26.4133 76.0148 27.2526 77.368 27.2526C78.1559 27.2526 78.9439 27.0128 79.7318 26.5332ZM85.9016 29.9762H82.5614V16.0243H85.7731V17.9514C86.6296 16.4269 87.9229 15.6646 89.6529 15.6646C90.2353 15.6646 90.792 15.7588 91.3231 15.9472L91.0404 19.159C90.4409 18.9706 89.9013 18.8764 89.4217 18.8764C88.3425 18.8764 87.4861 19.2446 86.8523 19.9812C86.2185 20.7006 85.9016 21.7626 85.9016 23.1673V29.9762ZM103.388 17.7972V16.0243H106.574V29.9762H103.388V28.2547C102.172 29.625 100.656 30.3102 98.84 30.3102C96.8358 30.3102 95.1828 29.6079 93.881 28.2033C92.5792 26.7987 91.9283 25.0429 91.9283 22.936C91.9283 20.8291 92.5792 19.099 93.881 17.7458C95.2 16.3755 96.853 15.6903 98.84 15.6903C100.621 15.6903 102.137 16.3926 103.388 17.7972ZM103.465 22.9874C103.465 21.8055 103.079 20.8034 102.309 19.9812C101.538 19.159 100.553 18.7479 99.3538 18.7479C98.1548 18.7479 97.1698 19.159 96.399 19.9812C95.6453 20.8205 95.2685 21.8226 95.2685 22.9874C95.2685 24.1693 95.6453 25.18 96.399 26.0193C97.1698 26.8415 98.1548 27.2526 99.3538 27.2526C100.553 27.2526 101.538 26.8415 102.309 26.0193C103.079 25.1971 103.465 24.1864 103.465 22.9874ZM116.616 30.2845C114.475 30.2845 112.702 29.5993 111.297 28.229C109.927 26.8586 109.242 25.1114 109.242 22.9874C109.242 20.8634 109.935 19.1162 111.323 17.7458C112.727 16.3755 114.526 15.6903 116.719 15.6903C118.157 15.6903 119.451 16.0329 120.598 16.7181C121.763 17.3861 122.628 18.3197 123.193 19.5187L120.47 20.9833C119.579 19.5101 118.346 18.7736 116.77 18.7736C115.571 18.7736 114.569 19.1761 113.764 19.9812C112.976 20.7691 112.582 21.7712 112.582 22.9874C112.582 24.1864 112.967 25.1885 113.738 25.9936C114.509 26.7987 115.485 27.2012 116.667 27.2012C117.438 27.2012 118.166 27.0042 118.851 26.6103C119.553 26.1991 120.076 25.6681 120.419 25.0172L123.142 26.6103C122.525 27.7408 121.635 28.6401 120.47 29.3081C119.322 29.959 118.038 30.2845 116.616 30.2845ZM138.753 29.9762H134.59L129.811 23.8867L128.784 24.8117V29.9762H125.443V10.4487H128.784V21.009L134.154 16.0243H138.419L132.124 21.7798L138.753 29.9762Z" fill="#C64DFF"/>
<path d="M150.912 17.7972V16.0243H154.098V29.9762H150.912V28.2547C149.695 29.625 148.18 30.3102 146.364 30.3102C144.36 30.3102 142.707 29.6079 141.405 28.2033C140.103 26.7987 139.452 25.0429 139.452 22.936C139.452 20.8291 140.103 19.099 141.405 17.7458C142.724 16.3755 144.377 15.6903 146.364 15.6903C148.145 15.6903 149.661 16.3926 150.912 17.7972ZM150.989 22.9874C150.989 21.8055 150.603 20.8034 149.833 19.9812C149.062 19.159 148.077 18.7479 146.878 18.7479C145.679 18.7479 144.694 19.159 143.923 19.9812C143.169 20.8205 142.792 21.8226 142.792 22.9874C142.792 24.1693 143.169 25.18 143.923 26.0193C144.694 26.8415 145.679 27.2526 146.878 27.2526C148.077 27.2526 149.062 26.8415 149.833 26.0193C150.603 25.1971 150.989 24.1864 150.989 22.9874ZM159.283 14.3542C158.667 14.3542 158.153 14.1572 157.742 13.7632C157.331 13.3693 157.125 12.864 157.125 12.2473C157.125 11.6478 157.331 11.151 157.742 10.7571C158.17 10.3459 158.684 10.1404 159.283 10.1404C159.883 10.1404 160.38 10.3459 160.774 10.7571C161.185 11.151 161.39 11.6478 161.39 12.2473C161.39 12.864 161.185 13.3693 160.774 13.7632C160.38 14.1572 159.883 14.3542 159.283 14.3542ZM160.928 16.0243V29.9762H157.562V16.0243H160.928Z" fill="#5082FC"/>
<defs>
<linearGradient id="paint0_linear_1_668" x1="19.9183" y1="5.80646" x2="40.9713" y2="38.2269" gradientUnits="userSpaceOnUse">
<stop offset="0.0416667" stop-color="#C241FF"/>
<stop offset="1" stop-color="#5082FC"/>
</linearGradient>
</defs>
</svg>
