<svg width="20" height="16" viewBox="0 0 20 16" fill="none" xmlns="http://www.w3.org/2000/svg">
<path d="M3.93833 1.28281C3.93833 1.10876 3.86919 0.941838 3.74612 0.818768C3.62305 0.695697 3.45613 0.626556 3.28208 0.626556C3.10803 0.626556 2.94111 0.695697 2.81804 0.818768C2.69497 0.941838 2.62583 1.10876 2.62583 1.28281V12.8236L1.1217 11.3182C0.998478 11.195 0.831347 11.1257 0.657079 11.1257C0.482811 11.1257 0.31568 11.195 0.192454 11.3182C0.0692278 11.4414 4.1059e-09 11.6085 0 11.7828C-4.1059e-09 11.9571 0.0692278 12.1242 0.192454 12.2474L2.81745 14.8711L2.82664 14.8803C2.94985 15.0005 3.11555 15.067 3.28764 15.0656C3.45972 15.0641 3.62426 14.9947 3.74539 14.8724L6.37039 12.2474C6.43141 12.1865 6.47982 12.1141 6.51288 12.0345C6.54593 11.9549 6.56298 11.8695 6.56304 11.7833C6.5631 11.697 6.54617 11.6116 6.51323 11.532C6.48029 11.4523 6.43198 11.3799 6.37105 11.3188C6.31012 11.2578 6.23777 11.2094 6.15813 11.1763C6.07849 11.1433 5.99311 11.1263 5.90689 11.1262C5.82066 11.1261 5.73526 11.1431 5.65558 11.176C5.57589 11.2089 5.50347 11.2573 5.44245 11.3182L3.93833 12.8236V1.28281ZM8.53208 2.59531C8.53208 2.42126 8.60122 2.25434 8.72429 2.13127C8.84736 2.0082 9.01428 1.93906 9.18833 1.93906H18.3758C18.5499 1.93906 18.7168 2.0082 18.8399 2.13127C18.9629 2.25434 19.0321 2.42126 19.0321 2.59531C19.0321 2.76935 18.9629 2.93627 18.8399 3.05934C18.7168 3.18242 18.5499 3.25156 18.3758 3.25156H9.18833C9.01428 3.25156 8.84736 3.18242 8.72429 3.05934C8.60122 2.93627 8.53208 2.76935 8.53208 2.59531ZM9.18833 5.87656C9.01428 5.87656 8.84736 5.9457 8.72429 6.06877C8.60122 6.19184 8.53208 6.35876 8.53208 6.53281C8.53208 6.70685 8.60122 6.87377 8.72429 6.99684C8.84736 7.11992 9.01428 7.18906 9.18833 7.18906H15.7508C15.9249 7.18906 16.0918 7.11992 16.2149 6.99684C16.3379 6.87377 16.4071 6.70685 16.4071 6.53281C16.4071 6.35876 16.3379 6.19184 16.2149 6.06877C16.0918 5.9457 15.9249 5.87656 15.7508 5.87656H9.18833ZM9.18833 9.81405C9.01428 9.81405 8.84736 9.88319 8.72429 10.0063C8.60122 10.1293 8.53208 10.2963 8.53208 10.4703C8.53208 10.6444 8.60122 10.8113 8.72429 10.9343C8.84736 11.0574 9.01428 11.1266 9.18833 11.1266H13.1258C13.2999 11.1266 13.4668 11.0574 13.5899 10.9343C13.7129 10.8113 13.7821 10.6444 13.7821 10.4703C13.7821 10.2963 13.7129 10.1293 13.5899 10.0063C13.4668 9.88319 13.2999 9.81405 13.1258 9.81405H9.18833ZM9.18833 13.7516C9.01428 13.7516 8.84736 13.8207 8.72429 13.9438C8.60122 14.0668 8.53208 14.2338 8.53208 14.4078C8.53208 14.5819 8.60122 14.7488 8.72429 14.8718C8.84736 14.9949 9.01428 15.0641 9.18833 15.0641H10.5008C10.6749 15.0641 10.8418 14.9949 10.9649 14.8718C11.0879 14.7488 11.1571 14.5819 11.1571 14.4078C11.1571 14.2338 11.0879 14.0668 10.9649 13.9438C10.8418 13.8207 10.6749 13.7516 10.5008 13.7516H9.18833Z" fill="#805AD5"/>
</svg>
